<?xml version="1.0" encoding="UTF-8"?>
<!-- Generator: Adobe Illustrator 16.0.0, SVG Export Plug-In . SVG Version: 6.00 Build 0)  -->
<!DOCTYPE svg PUBLIC "-//W3C//DTD SVG 1.1//EN" "http://www.w3.org/Graphics/SVG/1.1/DTD/svg11.dtd">
<svg version="1.1" id="图层_1" xmlns="http://www.w3.org/2000/svg" xmlns:xlink="http://www.w3.org/1999/xlink" x="0px" y="0px" width="595.279px" height="841.89px" viewBox="0 0 595.279 841.89" enable-background="new 0 0 595.279 841.89" xml:space="preserve">
<path fill="#FFFFFF" d="M182.827,369.243c0-8.939,7.272-16.213,16.213-16.213c8.939,0,16.213,7.273,16.213,16.213  s-7.273,16.213-16.213,16.213C190.1,385.456,182.827,378.183,182.827,369.243z M496.462,678.574c0,7.189-6.068,13.039-13.529,13.039  H115.234c-3.74,0-7.341-1.508-9.895-4.154c-2.502-2.568-3.817-6.072-3.609-9.613l0.399-362.041  c0.414-6.888,6.345-12.283,13.504-12.283h67.563v-41.733c0-62.182,51.983-112.771,115.879-112.771s115.877,50.589,115.877,112.771  v41.733h67.535c7.176,0,13.121,5.396,13.535,12.276C496.024,315.796,496.462,677.484,496.462,678.574z M210.256,303.521h177.641  v-41.733c0-47.805-39.846-86.696-88.82-86.696c-48.976,0-88.82,38.892-88.82,86.696V303.521z M469.729,329.597H128.424  l-0.257,335.941H469.75L469.729,329.597z M400.351,385.456c8.938,0,16.213-7.273,16.213-16.213c0-8.939-7.272-16.213-16.213-16.213  s-16.213,7.273-16.213,16.213C384.138,378.183,391.41,385.456,400.351,385.456z"/>
</svg>